<?xml version="1.0" encoding="UTF-8" standalone="no" ?>
<!DOCTYPE svg PUBLIC "-//W3C//DTD SVG 1.1//EN" "http://www.w3.org/Graphics/SVG/1.1/DTD/svg11.dtd">
<svg xmlns="http://www.w3.org/2000/svg" xmlns:xlink="http://www.w3.org/1999/xlink" version="1.1" width="320" height="65" viewBox="0 0 320 65" xml:space="preserve">
<desc>Created with Fabric.js 3.6.6</desc>
<defs>
</defs>
<g transform="matrix(1 0 0 1 160.4 33)"  >
<g style=""   >
		<g transform="matrix(1 0 0 1 -0.09 0.85)"  >
<path style="stroke: none; stroke-width: 1; stroke-dasharray: none; stroke-linecap: butt; stroke-dashoffset: 0; stroke-linejoin: miter; stroke-miterlimit: 4; fill: rgb(0,55,103); fill-rule: nonzero; opacity: 1;"  transform=" translate(-199.31, -108.85)" d="M 43.6 117.8 c 2 -1.6 4.5 -2.3 7.3 -2.3 c 1.5 0 3.5 0.3 4.8 0.7 c 0.3 0.1 0.5 0.1 0.8 0.1 c 0 0.6 0.2 2.3 0.4 4 c -0.1 0.2 -0.5 0.2 -0.7 0.1 c -0.4 -1.9 -1.6 -4 -5.6 -4 c -4.2 0 -7.7 2.6 -7.7 8.3 c 0 5.7 3.6 8.9 8.1 8.9 c 3.5 0 5.1 -2.3 5.7 -3.9 c 0.2 -0.1 0.6 -0.1 0.7 0.1 c -0.2 1.4 -0.9 3.2 -1.3 3.7 c -0.3 0.1 -0.7 0.2 -1 0.3 c -0.6 0.2 -2.6 0.6 -4.3 0.6 c -2.4 0 -4.8 -0.5 -6.8 -1.8 c -2.2 -1.5 -3.9 -4 -3.9 -7.5 c 0.1 -3.1 1.4 -5.7 3.5 -7.3 z M 70 128.4 c 0 3.4 -2.3 5.8 -5.7 5.8 c -3.1 0 -5.6 -2.2 -5.6 -5.6 c 0 -3.4 2.6 -5.9 5.8 -5.9 c 3 0.1 5.5 2.3 5.5 5.7 z m -5.9 -4.8 c -1.8 0 -3.1 1.7 -3.1 4.7 c 0 2.5 1.1 5.1 3.5 5.1 s 3.1 -2.5 3.1 -4.6 c 0 -2.3 -0.9 -5.2 -3.5 -5.2 z M 87.5 126.9 c 0 -1.9 -0.8 -2.8 -2.5 -2.8 c -1 0 -1.9 0.5 -2.3 1 c -0.3 0.4 -0.4 0.7 -0.4 1.6 v 4.2 c 0 2 0.1 2.2 1 2.4 l 0.6 0.1 c 0.2 0.1 0.1 0.6 -0.1 0.7 c -0.8 -0.1 -1.6 -0.1 -2.6 -0.1 s -1.7 0 -2.5 0.1 c -0.2 -0.1 -0.2 -0.5 -0.1 -0.7 l 0.5 -0.1 c 1 -0.2 1 -0.4 1 -2.4 V 127 c 0 -1.8 -0.8 -2.8 -2.5 -2.8 c -1.1 0 -1.9 0.5 -2.3 1 c -0.3 0.3 -0.4 0.7 -0.4 1.6 v 4.2 c 0 2 0.1 2.2 1 2.4 l 0.5 0.1 c 0.2 0.1 0.1 0.6 -0.1 0.7 c -0.7 -0.1 -1.5 -0.1 -2.5 -0.1 s -1.8 0 -2.6 0.1 c -0.2 -0.1 -0.2 -0.5 -0.1 -0.7 l 0.7 -0.1 c 1 -0.1 1 -0.4 1 -2.4 v -5 c 0 -1.1 0 -1.2 -0.7 -1.7 l -0.2 -0.2 c -0.1 -0.1 -0.1 -0.4 0 -0.5 c 0.6 -0.2 2.2 -0.9 2.7 -1.3 c 0.1 0 0.2 0.1 0.3 0.2 c -0.1 0.6 -0.1 1 -0.1 1.3 c 0 0.2 0.1 0.3 0.3 0.3 c 1 -0.7 2.3 -1.4 3.6 -1.4 c 1.4 0 2.1 0.5 2.9 1.6 c 0.2 0.1 0.4 -0.1 0.7 -0.2 c 1.1 -0.8 2.4 -1.4 3.7 -1.4 c 2.2 0 3.2 1.5 3.2 3.4 v 4.7 c 0 2 0.1 2.2 1 2.4 l 0.7 0.1 c 0.2 0.1 0.1 0.6 -0.1 0.7 c -0.9 -0.1 -1.7 -0.1 -2.6 -0.1 c -1 0 -1.7 0 -2.5 0.1 c -0.2 -0.1 -0.2 -0.5 -0.1 -0.7 l 0.5 -0.1 c 1 -0.2 1 -0.4 1 -2.4 v -3.9 z M 93.5 126 c 0 -1.1 0 -1.2 -0.7 -1.7 l -0.2 -0.2 c -0.1 -0.1 -0.1 -0.4 0 -0.5 c 0.7 -0.3 2 -1 2.7 -1.5 c 0.2 0 0.3 0.1 0.3 0.2 c -0.1 0.5 -0.1 0.9 -0.1 1.3 c 0 0.2 0.1 0.4 0.2 0.4 c 0.4 -0.2 2.1 -1.3 3.8 -1.3 c 2.7 0 4.5 2.2 4.5 5 c 0 3.8 -2.8 6.5 -6.6 6.5 c -0.5 0 -1.3 -0.1 -1.5 -0.1 c -0.2 0.1 -0.4 0.2 -0.4 0.8 v 2.9 c 0 1.9 0.1 2.2 1 2.3 l 1.1 0.1 c 0.2 0.1 0.1 0.6 -0.1 0.7 c -1.3 -0.1 -2.1 -0.1 -3 -0.1 c -1 0 -1.8 0 -2.6 0.1 c -0.2 -0.1 -0.2 -0.5 -0.1 -0.7 l 0.6 -0.1 c 1 -0.1 1 -0.4 1 -2.4 V 126 z m 2 5.1 c 0 0.9 0.3 1.2 0.8 1.6 c 0.5 0.4 1.4 0.6 2 0.6 c 2.2 0 3.5 -2.1 3.5 -4.9 c 0 -2.2 -1.2 -4.4 -3.7 -4.4 c -1.2 0 -2 0.4 -2.3 0.8 c -0.2 0.3 -0.3 0.7 -0.3 1.6 v 4.7 z M 107.6 126 c 0 -1.1 0 -1.2 -0.7 -1.7 l -0.2 -0.2 c -0.1 -0.1 -0.1 -0.4 0 -0.5 c 0.6 -0.2 2.1 -0.9 2.7 -1.3 c 0.1 0 0.2 0.1 0.2 0.2 v 1.6 c 0 0.1 0 0.2 0.1 0.2 c 1 -0.8 2 -1.6 3 -1.6 c 0.7 0 1.2 0.4 1.2 1.1 c 0 0.9 -0.7 1.3 -1.2 1.3 c -0.3 0 -0.4 -0.1 -0.6 -0.2 c -0.4 -0.3 -0.8 -0.4 -1.2 -0.4 c -0.4 0 -0.8 0.2 -1 0.5 c -0.3 0.4 -0.4 1.2 -0.4 2.1 v 3.7 c 0 2 0.1 2.3 1.1 2.4 l 1 0.1 c 0.2 0.1 0.1 0.6 -0.1 0.7 c -1.3 -0.1 -2.1 -0.1 -3 -0.1 c -1 0 -1.8 0 -2.5 0.1 c -0.2 -0.1 -0.2 -0.5 -0.1 -0.7 l 0.5 -0.1 c 1 -0.2 1 -0.4 1 -2.4 V 126 z M 117.2 126.9 c -0.7 0 -0.7 0.1 -0.7 0.7 c 0 2.7 1.6 5.1 4.5 5.1 c 0.9 0 1.7 -0.3 2.5 -1.3 c 0.3 -0.1 0.5 0.1 0.5 0.3 c -0.9 1.8 -2.9 2.5 -4.3 2.5 c -1.8 0 -3.2 -0.8 -3.9 -1.8 c -0.8 -1.1 -1.1 -2.3 -1.1 -3.5 c 0 -3.3 2.2 -6.1 5.5 -6.1 c 2.3 0 3.9 1.6 3.9 3.2 c 0 0.4 -0.1 0.6 -0.1 0.7 c -0.1 0.2 -0.5 0.2 -1.6 0.2 h -5.2 z m 1.6 -0.8 c 2 0 2.6 -0.1 2.8 -0.3 c 0.1 -0.1 0.2 -0.2 0.2 -0.5 c 0 -0.8 -0.5 -1.7 -2.1 -1.7 s -3 1.5 -3 2.4 c 0 0.1 0 0.1 0.2 0.1 h 1.9 z M 126.7 118.5 c 0 -1.6 0 -1.8 -0.8 -2.3 l -0.3 -0.2 c -0.1 -0.1 -0.1 -0.5 0 -0.5 c 0.7 -0.2 2 -0.6 2.9 -1.1 c 0.1 0 0.2 0.1 0.3 0.2 c 0 0.8 -0.1 2.2 -0.1 3.4 v 5.7 c 0 0.2 0 0.5 0.1 0.5 c 1 -0.8 2.3 -1.4 3.7 -1.4 c 2.6 0 3.5 1.6 3.5 3.5 v 4.5 c 0 2 0.1 2.3 1 2.4 l 0.7 0.1 c 0.2 0.1 0.1 0.6 -0.1 0.7 c -1 -0.1 -1.8 -0.1 -2.7 -0.1 c -1 0 -1.8 0 -2.5 0.1 c -0.2 -0.1 -0.2 -0.5 -0.1 -0.7 l 0.5 -0.1 c 1 -0.2 1 -0.4 1 -2.4 v -3.9 c 0 -1.7 -0.8 -2.9 -2.6 -2.9 c -0.9 0 -1.6 0.3 -2.1 0.7 c -0.5 0.4 -0.6 0.5 -0.6 1.5 v 4.6 c 0 2 0.1 2.2 1 2.4 l 0.6 0.1 c 0.2 0.1 0.1 0.6 -0.1 0.7 c -0.8 -0.1 -1.6 -0.1 -2.6 -0.1 s -1.8 0 -2.7 0.1 c -0.2 -0.1 -0.2 -0.5 -0.1 -0.7 l 0.7 -0.1 c 1 -0.1 1 -0.4 1 -2.4 v -12.3 z M 141.6 126.9 c -0.7 0 -0.7 0.1 -0.7 0.7 c 0 2.7 1.6 5.1 4.5 5.1 c 0.9 0 1.7 -0.3 2.5 -1.3 c 0.3 -0.1 0.5 0.1 0.5 0.3 c -0.9 1.8 -2.9 2.5 -4.3 2.5 c -1.8 0 -3.2 -0.8 -3.9 -1.8 c -0.8 -1.1 -1.1 -2.3 -1.1 -3.5 c 0 -3.3 2.2 -6.1 5.5 -6.1 c 2.3 0 3.9 1.6 3.9 3.2 c 0 0.4 -0.1 0.6 -0.1 0.7 c -0.1 0.2 -0.5 0.2 -1.6 0.2 h -5.2 z m 1.7 -0.8 c 2 0 2.6 -0.1 2.8 -0.3 c 0.1 -0.1 0.2 -0.2 0.2 -0.5 c 0 -0.8 -0.5 -1.7 -2.1 -1.7 s -3 1.5 -3 2.4 c 0 0.1 0 0.1 0.2 0.1 h 1.9 z M 151.5 126 c 0 -1.1 0 -1.2 -0.7 -1.7 l -0.2 -0.2 c -0.1 -0.1 -0.1 -0.4 0 -0.5 c 0.6 -0.2 2.2 -0.9 2.7 -1.3 c 0.1 0 0.2 0.1 0.3 0.2 c -0.1 0.6 -0.1 1 -0.1 1.3 c 0 0.2 0.1 0.3 0.3 0.3 c 1.1 -0.7 2.4 -1.4 3.8 -1.4 c 2.3 0 3.2 1.6 3.2 3.4 v 4.7 c 0 2 0.1 2.2 1 2.4 l 0.6 0.1 c 0.2 0.1 0.1 0.6 -0.1 0.7 c -0.8 -0.1 -1.6 -0.1 -2.6 -0.1 s -1.8 0 -2.5 0.1 c -0.2 -0.1 -0.2 -0.5 -0.1 -0.7 l 0.5 -0.1 c 1 -0.2 1 -0.4 1 -2.4 v -4.1 c 0 -1.6 -0.7 -2.7 -2.6 -2.7 c -1 0 -1.9 0.4 -2.3 1 c -0.4 0.5 -0.4 0.8 -0.4 1.6 v 4.2 c 0 2 0.1 2.2 1 2.4 l 0.5 0.1 c 0.2 0.1 0.1 0.6 -0.1 0.7 c -0.7 -0.1 -1.5 -0.1 -2.5 -0.1 s -1.8 0 -2.6 0.1 c -0.2 -0.1 -0.2 -0.5 -0.1 -0.7 l 0.6 -0.1 c 1 -0.1 1 -0.4 1 -2.4 V 126 z M 170 123.2 c 0.2 0.6 0.4 1.5 0.4 2.2 c -0.1 0.2 -0.5 0.2 -0.7 0.1 c -0.5 -1.2 -1.3 -2 -2.4 -2 c -1.1 0 -1.7 0.7 -1.7 1.7 c 0 1.1 1.1 1.7 2.1 2.3 c 1.4 0.8 2.8 1.7 2.8 3.7 c 0 2.1 -1.9 3.1 -3.9 3.1 c -1.3 0 -2.2 -0.3 -2.9 -0.8 c -0.2 -0.5 -0.4 -1.8 -0.3 -2.7 c 0.1 -0.2 0.5 -0.2 0.6 0 c 0.5 1.5 1.3 2.8 2.9 2.8 c 1 0 1.8 -0.6 1.8 -1.7 c 0 -1.3 -1.1 -1.9 -2.1 -2.5 c -1.6 -0.9 -2.7 -1.9 -2.7 -3.3 c 0 -2 1.6 -3.1 3.7 -3.1 c 1.1 -0.2 2.1 0 2.4 0.2 z M 173.9 126 c 0 -1.1 0 -1.2 -0.7 -1.7 l -0.2 -0.2 c -0.1 -0.1 -0.1 -0.4 0 -0.5 c 0.6 -0.2 2.2 -0.9 2.8 -1.3 c 0.1 0 0.2 0.1 0.3 0.2 c -0.1 1 -0.1 2.3 -0.1 3.4 v 4.9 c 0 2 0.1 2.2 1 2.4 l 0.6 0.1 c 0.2 0.1 0.1 0.6 -0.1 0.7 c -0.8 -0.1 -1.6 -0.1 -2.6 -0.1 s -1.8 0 -2.6 0.1 c -0.2 -0.1 -0.2 -0.5 -0.1 -0.7 l 0.6 -0.1 c 1 -0.1 1 -0.4 1 -2.4 V 126 z m 2.3 -7.7 c 0 1 -0.7 1.4 -1.4 1.4 c -0.8 0 -1.4 -0.6 -1.4 -1.4 c 0 -0.9 0.7 -1.5 1.5 -1.5 c 0.7 0.1 1.3 0.7 1.3 1.5 z M 180.2 125.8 c -0.4 -1 -0.7 -1.9 -1.6 -2 l -0.5 -0.1 c -0.2 -0.2 -0.1 -0.6 0.1 -0.7 c 0.7 0.1 1.6 0.1 2.6 0.1 c 0.7 0 1.3 0 2.2 -0.1 c 0.2 0.1 0.2 0.5 0 0.7 l -0.3 0.1 c -0.8 0.1 -0.9 0.3 -0.6 1.1 c 0.6 1.9 1.4 3.8 2 5.2 c 0.2 0.5 0.4 0.8 0.4 0.9 c 0.1 -0.1 0.3 -0.5 0.5 -1 c 0.4 -0.9 1.3 -3.3 1.6 -4 c 0.4 -1 0.5 -1.5 0.5 -1.7 c 0 -0.2 -0.2 -0.4 -0.5 -0.4 l -0.6 -0.1 c -0.2 -0.2 -0.1 -0.6 0.1 -0.7 c 0.8 0.1 1.5 0.1 2 0.1 c 0.7 0 1.1 0 1.9 -0.1 c 0.2 0.1 0.2 0.5 0.1 0.7 l -0.4 0.1 c -1 0.1 -1.2 0.8 -2 2.4 c -0.4 0.7 -2.1 4.7 -2.5 5.8 c -0.3 0.7 -0.5 1.3 -0.9 2.2 c -0.1 0.1 -0.2 0.1 -0.3 0.1 c -0.1 0 -0.3 0 -0.4 -0.1 c -0.2 -0.8 -0.6 -1.8 -1 -2.8 l -2.4 -5.7 z M 193.3 126.9 c -0.7 0 -0.7 0.1 -0.7 0.7 c 0 2.7 1.6 5.1 4.5 5.1 c 0.9 0 1.7 -0.3 2.5 -1.3 c 0.3 -0.1 0.5 0.1 0.5 0.3 c -0.9 1.8 -2.9 2.5 -4.3 2.5 c -1.8 0 -3.2 -0.8 -3.9 -1.8 c -0.8 -1.1 -1.1 -2.3 -1.1 -3.5 c 0 -3.3 2.2 -6.1 5.5 -6.1 c 2.3 0 3.9 1.6 3.9 3.2 c 0 0.4 -0.1 0.6 -0.1 0.7 c -0.1 0.2 -0.5 0.2 -1.6 0.2 h -5.2 z m 1.6 -0.8 c 2 0 2.6 -0.1 2.8 -0.3 c 0.1 -0.1 0.2 -0.2 0.2 -0.5 c 0 -0.8 -0.5 -1.7 -2.1 -1.7 s -3 1.5 -3 2.4 c 0 0.1 0 0.1 0.2 0.1 h 1.9 z M 211.8 117.8 c 2 -1.6 4.5 -2.3 7.3 -2.3 c 1.5 0 3.5 0.3 4.8 0.7 c 0.3 0.1 0.5 0.1 0.8 0.1 c 0 0.6 0.2 2.3 0.4 4 c -0.1 0.2 -0.5 0.2 -0.7 0.1 c -0.4 -1.9 -1.6 -4 -5.6 -4 c -4.2 0 -7.7 2.6 -7.7 8.3 c 0 5.7 3.6 8.9 8.1 8.9 c 3.5 0 5.1 -2.3 5.7 -3.9 c 0.2 -0.1 0.6 -0.1 0.7 0.1 c -0.2 1.4 -0.9 3.2 -1.3 3.7 c -0.3 0.1 -0.7 0.2 -1 0.3 c -0.6 0.2 -2.6 0.6 -4.3 0.6 c -2.4 0 -4.8 -0.5 -6.8 -1.8 c -2.2 -1.5 -3.9 -4 -3.9 -7.5 c 0.1 -3.1 1.4 -5.7 3.5 -7.3 z M 232.3 128.2 c 0.4 -0.1 0.5 -0.4 0.5 -0.8 v -1.3 c 0 -1 -0.3 -2.4 -2 -2.4 c -0.8 0 -1.7 0.4 -1.7 1.2 c 0 0.4 -0.1 0.8 -0.3 0.9 c -0.4 0.3 -1.1 0.5 -1.6 0.5 c -0.2 0 -0.4 -0.1 -0.4 -0.4 c 0 -1.4 3.1 -3.3 5.1 -3.3 c 2 0 2.9 1.1 2.8 3.2 l -0.2 4.7 c -0.1 1.3 0.2 2.4 1.3 2.4 c 0.3 0 0.5 -0.1 0.7 -0.2 c 0.1 -0.1 0.3 -0.2 0.4 -0.2 c 0.1 0 0.2 0.2 0.2 0.4 c 0 0.1 -1 1.2 -2.3 1.2 c -0.7 0 -1.3 -0.2 -1.8 -0.8 c -0.1 -0.2 -0.3 -0.4 -0.4 -0.4 c -0.2 0 -0.5 0.2 -1.1 0.5 c -0.6 0.3 -1.2 0.7 -2 0.7 s -1.4 -0.2 -1.9 -0.6 c -0.5 -0.5 -0.8 -1.1 -0.8 -1.9 c 0 -1.1 0.5 -1.7 2.3 -2.3 l 3.2 -1.1 z m -1.6 4.8 c 0.5 0 1.4 -0.4 1.7 -0.7 c 0.3 -0.3 0.3 -0.7 0.4 -1.3 l 0.1 -1.6 c 0 -0.3 -0.1 -0.4 -0.3 -0.4 s -0.6 0.1 -1.1 0.3 c -1.6 0.5 -2.4 1 -2.4 2 c -0.2 0.5 0.2 1.7 1.6 1.7 z M 239.3 126 c 0 -1.1 0 -1.2 -0.7 -1.7 l -0.2 -0.2 c -0.1 -0.1 -0.1 -0.4 0 -0.5 c 0.6 -0.2 2.2 -0.9 2.7 -1.3 c 0.1 0 0.2 0.1 0.3 0.2 c -0.1 0.6 -0.1 1 -0.1 1.3 c 0 0.2 0.1 0.3 0.3 0.3 c 1.1 -0.7 2.4 -1.4 3.8 -1.4 c 2.3 0 3.2 1.6 3.2 3.4 v 4.7 c 0 2 0.1 2.2 1 2.4 l 0.6 0.1 c 0.2 0.1 0.1 0.6 -0.1 0.7 c -0.8 -0.1 -1.6 -0.1 -2.6 -0.1 s -1.8 0 -2.5 0.1 c -0.2 -0.1 -0.2 -0.5 -0.1 -0.7 l 0.5 -0.1 c 1 -0.2 1 -0.4 1 -2.4 v -4.1 c 0 -1.6 -0.7 -2.7 -2.6 -2.7 c -1 0 -1.9 0.4 -2.3 1 c -0.4 0.5 -0.4 0.8 -0.4 1.6 v 4.2 c 0 2 0.1 2.2 1 2.4 l 0.5 0.1 c 0.2 0.1 0.1 0.6 -0.1 0.7 c -0.7 -0.1 -1.5 -0.1 -2.5 -0.1 s -1.8 0 -2.6 0.1 c -0.2 -0.1 -0.2 -0.5 -0.1 -0.7 l 0.6 -0.1 c 1 -0.1 1 -0.4 1 -2.4 V 126 z M 260.3 123.2 c 0.2 0.2 0.4 0.6 0.4 1.1 c 0 0.5 -0.3 1 -0.6 1 c -0.1 0 -0.3 -0.1 -0.4 -0.2 c -0.6 -0.7 -1.6 -1.4 -2.7 -1.4 c -1.9 0 -3.8 1.5 -3.8 4.4 c 0 2.1 1.5 4.7 4.4 4.7 c 1.6 0 2.4 -0.7 3 -1.6 c 0.2 -0.1 0.5 0.1 0.5 0.4 c -0.9 2 -3 2.8 -4.5 2.8 c -1.4 0 -2.8 -0.5 -3.7 -1.4 s -1.6 -2.3 -1.6 -4 c 0 -2.9 2.1 -6.1 6.6 -6.1 c 0.6 -0.1 1.7 0 2.4 0.3 z M 264.6 126.9 c -0.7 0 -0.7 0.1 -0.7 0.7 c 0 2.7 1.6 5.1 4.5 5.1 c 0.9 0 1.7 -0.3 2.5 -1.3 c 0.3 -0.1 0.5 0.1 0.5 0.3 c -0.9 1.8 -2.9 2.5 -4.3 2.5 c -1.8 0 -3.2 -0.8 -3.9 -1.8 c -0.8 -1.1 -1.1 -2.3 -1.1 -3.5 c 0 -3.3 2.2 -6.1 5.5 -6.1 c 2.3 0 3.9 1.6 3.9 3.2 c 0 0.4 -0.1 0.6 -0.1 0.7 c -0.1 0.2 -0.5 0.2 -1.6 0.2 h -5.2 z m 1.7 -0.8 c 2 0 2.6 -0.1 2.8 -0.3 c 0.1 -0.1 0.2 -0.2 0.2 -0.5 c 0 -0.8 -0.5 -1.7 -2.1 -1.7 s -3 1.5 -3 2.4 c 0 0.1 0 0.1 0.2 0.1 h 1.9 z M 274.5 126 c 0 -1.1 0 -1.2 -0.7 -1.7 l -0.2 -0.2 c -0.1 -0.1 -0.1 -0.4 0 -0.5 c 0.6 -0.2 2.1 -0.9 2.7 -1.3 c 0.1 0 0.2 0.1 0.2 0.2 v 1.6 c 0 0.1 0 0.2 0.1 0.2 c 1 -0.8 2 -1.6 3 -1.6 c 0.7 0 1.2 0.4 1.2 1.1 c 0 0.9 -0.7 1.3 -1.2 1.3 c -0.3 0 -0.4 -0.1 -0.6 -0.2 c -0.4 -0.3 -0.8 -0.4 -1.2 -0.4 c -0.4 0 -0.8 0.2 -1 0.5 c -0.3 0.4 -0.4 1.2 -0.4 2.1 v 3.7 c 0 2 0.1 2.3 1.1 2.4 l 1 0.1 c 0.2 0.1 0.1 0.6 -0.1 0.7 c -1.3 -0.1 -2.1 -0.1 -3 -0.1 c -1 0 -1.8 0 -2.5 0.1 c -0.2 -0.1 -0.2 -0.5 -0.1 -0.7 l 0.5 -0.1 c 1 -0.2 1 -0.4 1 -2.4 V 126 z M 291.9 117.8 c 2 -1.6 4.5 -2.3 7.3 -2.3 c 1.5 0 3.5 0.3 4.8 0.7 c 0.3 0.1 0.5 0.1 0.8 0.1 c 0 0.6 0.2 2.3 0.4 4 c -0.1 0.2 -0.5 0.2 -0.7 0.1 c -0.4 -1.9 -1.6 -4 -5.6 -4 c -4.2 0 -7.7 2.6 -7.7 8.3 c 0 5.7 3.6 8.9 8.1 8.9 c 3.5 0 5.1 -2.3 5.7 -3.9 c 0.2 -0.1 0.6 -0.1 0.7 0.1 c -0.2 1.4 -0.9 3.2 -1.3 3.7 c -0.3 0.1 -0.7 0.2 -1 0.3 c -0.6 0.2 -2.6 0.6 -4.3 0.6 c -2.4 0 -4.8 -0.5 -6.8 -1.8 c -2.2 -1.5 -3.9 -4 -3.9 -7.5 c 0.1 -3.1 1.4 -5.7 3.5 -7.3 z M 309.5 126.9 c -0.7 0 -0.7 0.1 -0.7 0.7 c 0 2.7 1.6 5.1 4.5 5.1 c 0.9 0 1.7 -0.3 2.5 -1.3 c 0.3 -0.1 0.5 0.1 0.5 0.3 c -0.9 1.8 -2.9 2.5 -4.3 2.5 c -1.8 0 -3.2 -0.8 -3.9 -1.8 c -0.8 -1.1 -1.1 -2.3 -1.1 -3.5 c 0 -3.3 2.2 -6.1 5.5 -6.1 c 2.3 0 3.9 1.6 3.9 3.2 c 0 0.4 -0.1 0.6 -0.1 0.7 c -0.1 0.2 -0.5 0.2 -1.6 0.2 h -5.2 z m 1.7 -0.8 c 2 0 2.6 -0.1 2.8 -0.3 c 0.1 -0.1 0.2 -0.2 0.2 -0.5 c 0 -0.8 -0.5 -1.7 -2.1 -1.7 s -3 1.5 -3 2.4 c 0 0.1 0 0.1 0.2 0.1 h 1.9 z M 319.4 126 c 0 -1.1 0 -1.2 -0.7 -1.7 l -0.2 -0.2 c -0.1 -0.1 -0.1 -0.4 0 -0.5 c 0.6 -0.2 2.2 -0.9 2.7 -1.3 c 0.1 0 0.2 0.1 0.3 0.2 c -0.1 0.6 -0.1 1 -0.1 1.3 c 0 0.2 0.1 0.3 0.3 0.3 c 1.1 -0.7 2.4 -1.4 3.8 -1.4 c 2.3 0 3.2 1.6 3.2 3.4 v 4.7 c 0 2 0.1 2.2 1 2.4 l 0.6 0.1 c 0.2 0.1 0.1 0.6 -0.1 0.7 c -0.8 -0.1 -1.6 -0.1 -2.6 -0.1 s -1.8 0 -2.5 0.1 c -0.2 -0.1 -0.2 -0.5 -0.1 -0.7 l 0.5 -0.1 c 1 -0.2 1 -0.4 1 -2.4 v -4.1 c 0 -1.6 -0.7 -2.7 -2.6 -2.7 c -1 0 -1.9 0.4 -2.3 1 c -0.4 0.5 -0.4 0.8 -0.4 1.6 v 4.2 c 0 2 0.1 2.2 1 2.4 l 0.5 0.1 c 0.2 0.1 0.1 0.6 -0.1 0.7 c -0.7 -0.1 -1.5 -0.1 -2.5 -0.1 s -1.8 0 -2.6 0.1 c -0.2 -0.1 -0.2 -0.5 -0.1 -0.7 l 0.6 -0.1 c 1 -0.1 1 -0.4 1 -2.4 V 126 z M 335.3 124.3 c -0.5 0 -0.5 0.1 -0.5 0.7 v 5.1 c 0 1.6 0.2 3 2 3 c 0.3 0 0.5 -0.1 0.7 -0.1 c 0.2 -0.1 0.6 -0.4 0.7 -0.4 c 0.2 0 0.3 0.3 0.3 0.5 c -0.5 0.6 -1.5 1.3 -2.9 1.3 c -2.3 0 -2.8 -1.3 -2.8 -2.9 v -6.2 c 0 -0.7 0 -0.8 -0.6 -0.8 h -0.8 c -0.2 -0.1 -0.2 -0.4 -0.1 -0.6 c 0.8 -0.2 1.5 -0.6 1.7 -0.8 c 0.4 -0.3 0.9 -1.1 1.1 -1.6 c 0.1 -0.1 0.5 -0.1 0.6 0.1 v 1.2 c 0 0.5 0 0.5 0.5 0.5 h 3 c 0.3 0.2 0.3 1 0 1.1 h -2.9 z M 341.7 126.9 c -0.7 0 -0.7 0.1 -0.7 0.7 c 0 2.7 1.6 5.1 4.5 5.1 c 0.9 0 1.7 -0.3 2.5 -1.3 c 0.3 -0.1 0.5 0.1 0.5 0.3 c -0.9 1.8 -2.9 2.5 -4.3 2.5 c -1.8 0 -3.2 -0.8 -3.9 -1.8 c -0.8 -1.1 -1.1 -2.3 -1.1 -3.5 c 0 -3.3 2.2 -6.1 5.5 -6.1 c 2.3 0 3.9 1.6 3.9 3.2 c 0 0.4 -0.1 0.6 -0.1 0.7 c -0.1 0.2 -0.5 0.2 -1.6 0.2 h -5.2 z m 1.7 -0.8 c 2 0 2.6 -0.1 2.8 -0.3 c 0.1 -0.1 0.2 -0.2 0.2 -0.5 c 0 -0.8 -0.5 -1.7 -2.1 -1.7 s -3 1.5 -3 2.4 c 0 0.1 0 0.1 0.2 0.1 h 1.9 z M 351.6 126 c 0 -1.1 0 -1.2 -0.7 -1.7 l -0.2 -0.2 c -0.1 -0.1 -0.1 -0.4 0 -0.5 c 0.6 -0.2 2.1 -0.9 2.7 -1.3 c 0.1 0 0.2 0.1 0.2 0.2 v 1.6 c 0 0.1 0 0.2 0.1 0.2 c 1 -0.8 2 -1.6 3 -1.6 c 0.7 0 1.2 0.4 1.2 1.1 c 0 0.9 -0.7 1.3 -1.2 1.3 c -0.3 0 -0.4 -0.1 -0.6 -0.2 c -0.4 -0.3 -0.8 -0.4 -1.2 -0.4 c -0.4 0 -0.8 0.2 -1 0.5 c -0.3 0.4 -0.4 1.2 -0.4 2.1 v 3.7 c 0 2 0.1 2.3 1.1 2.4 l 1 0.1 c 0.2 0.1 0.1 0.6 -0.1 0.7 c -1.3 -0.1 -2.1 -0.1 -3 -0.1 c -1 0 -1.8 0 -2.5 0.1 c -0.2 -0.1 -0.2 -0.5 -0.1 -0.7 l 0.5 -0.1 c 1 -0.2 1 -0.4 1 -2.4 V 126 z M 40.9 78.5 c -0.3 -0.3 -0.3 -1.3 0.1 -1.4 c 1.3 0.1 3.1 0.1 5 0.1 c 1.3 0 2.5 0 3.9 -0.1 c 0 2.5 1.4 4.9 3.1 8.6 l 2.6 5.6 c 0.4 0.8 1.6 3.1 2.1 4 c 0.5 -1 1.2 -2.2 2.2 -4.5 l 2 -4.4 c 1.9 -4.1 2.8 -5.9 3.6 -9.4 c 1.8 0.2 3.1 0.1 4.2 0.1 c 1.3 0 3.1 0 4.6 -0.1 c 0.4 0.2 0.4 1 0.1 1.4 l -1.2 0.2 c -1.6 0.3 -2.4 0.8 -2.4 2.9 c 0 8.2 0.1 12.5 0.3 17.4 c 0.1 1.8 0.2 2.7 1.8 3 l 1.3 0.2 c 0.3 0.3 0.3 1.2 -0.1 1.4 c -1.8 -0.1 -3.5 -0.1 -5.5 -0.1 c -1.8 0 -4 0 -5.9 0.1 c -0.5 -0.2 -0.5 -1.1 -0.1 -1.4 l 1.4 -0.1 c 1.8 -0.4 1.8 -0.7 1.8 -3.1 l -0.1 -10.3 v -4.5 h -0.1 c -2.9 6.3 -6.1 13 -8.7 19.7 c -0.2 0.2 -0.5 0.3 -0.8 0.3 c -0.4 0 -0.8 -0.1 -1 -0.2 c -1.5 -4.9 -6.3 -14.6 -8.5 -19.7 h -0.1 c -0.2 2.6 -0.2 4.1 -0.3 6.2 c 0 2.6 -0.1 6.5 -0.1 8.9 c 0 2 0.2 2.5 1.8 2.8 l 1.5 0.2 c 0.3 0.3 0.2 1.2 -0.1 1.4 c -1.5 -0.1 -3.2 -0.1 -4.7 -0.1 c -1.3 0 -2.9 0 -4.5 0.1 c -0.5 -0.2 -0.5 -1.2 -0.2 -1.4 l 0.7 -0.1 c 2 -0.4 2.1 -0.6 2.4 -3.1 c 0.2 -1.9 0.4 -5.4 0.6 -9.2 c 0.2 -2.7 0.3 -5.9 0.3 -8 c 0 -2.3 -0.9 -2.8 -2.5 -3.1 l -0.5 -0.3 z M 75.2 95.8 c -0.1 -5.7 4.4 -8.8 9.1 -8.8 c 4.7 0 8.9 2.9 8.9 8.4 c 0 5.8 -4.2 8.5 -9.1 8.5 c -4.7 0.1 -8.9 -2.6 -8.9 -8.1 z m 5.7 -0.8 c 0 4.2 1.3 7.2 3.6 7.2 s 3 -2.6 3 -6.1 c -0.1 -3.8 -1.1 -7.2 -3.4 -7.2 c -1.8 0 -3.2 1.7 -3.2 6.1 z M 97.2 92.9 c 0 -1.6 0 -2 -0.8 -2.5 l -0.5 -0.4 c -0.3 -0.2 -0.3 -1 0 -1.2 c 1.9 -0.5 4.7 -1.6 5.9 -2.3 c 0.3 0 0.6 0.1 0.7 0.4 c 0 0.6 -0.1 1.5 -0.1 1.8 c 0 0.2 0.1 0.3 0.2 0.3 s 0.5 -0.2 0.8 -0.3 c 0.9 -0.5 2.7 -1.6 4.6 -1.6 c 3.3 0 5 2.3 5 5 v 6.8 c 0 2.8 0.2 3.1 1.6 3.3 l 0.6 0.1 c 0.3 0.2 0.3 1.1 0 1.4 c -1.2 -0.1 -2.9 -0.1 -4.8 -0.1 c -1.6 0 -3.1 0 -4.3 0.1 c -0.4 -0.2 -0.4 -1.2 0 -1.4 l 0.7 -0.1 c 0.9 -0.1 1.1 -0.4 1.1 -2.6 v -6.7 c 0 -1.5 -0.8 -2.8 -2.8 -2.8 c -1.1 0 -1.9 0.5 -2.2 1 c -0.2 0.3 -0.3 0.8 -0.3 1.5 v 7.1 c 0 2.2 0.2 2.5 1.1 2.7 l 0.6 0.1 c 0.3 0.2 0.3 1.1 0 1.4 c -1.2 -0.1 -2.5 -0.1 -4.4 -0.1 c -1.7 0 -3.3 0 -4.7 0.1 c -0.4 -0.2 -0.4 -1.2 0 -1.4 l 0.6 -0.1 c 1.4 -0.2 1.6 -0.5 1.6 -3.3 v -6.2 z M 123.8 89.7 c -0.5 0 -0.6 0 -0.6 0.9 v 5.9 c 0 2.2 0 4.7 2.8 4.7 c 0.6 0 1.2 -0.3 1.7 -0.6 c 0.4 0.1 0.6 0.6 0.6 1 c -1.1 1.2 -3.3 2.3 -5.7 2.3 c -3.3 0 -4.4 -1.9 -4.4 -4.5 v -8.8 c 0 -0.8 0 -0.9 -0.8 -0.9 h -1.2 c -0.4 -0.2 -0.6 -1 -0.2 -1.2 c 1.2 -0.4 2.3 -1.2 3.3 -1.8 c 0.7 -0.5 1.7 -1.3 2.9 -3.1 c 0.3 -0.2 1 -0.1 1.2 0.2 v 3 c 0 0.8 0 0.8 0.8 0.8 h 3.5 c 0.2 0.2 0.3 0.4 0.3 0.8 s -0.1 1.1 -0.5 1.4 h -3.7 z M 134.8 94 c -0.9 0 -1 0.1 -1 0.7 c 0 3 1.9 5.9 5.6 5.9 c 1.1 0 2.6 -0.2 3.7 -2.1 c 0.4 -0.1 1 0.2 1 0.9 c -1.6 3.4 -4.6 4.5 -6.9 4.5 c -5.4 0 -8.2 -3.8 -8.2 -8.1 c 0 -5 3.6 -8.9 8.6 -8.9 c 4.1 0 6.3 2.7 6.3 5.7 c 0 0.8 -0.2 1.3 -1.4 1.3 h -7.7 z m 2.6 -1.7 c 0.6 0 1.2 -0.1 1.6 -0.4 c 0.2 -0.1 0.3 -0.5 0.3 -0.9 c 0 -1.3 -0.8 -2.2 -2.1 -2.2 c -1.7 0 -3.1 1.6 -3.1 2.9 c 0 0.6 0.6 0.6 1.8 0.6 h 1.5 z M 166.1 98.8 c 0 2.8 0.2 3.1 1.5 3.3 l 0.8 0.1 c 0.3 0.2 0.3 1.1 0 1.4 c -1.4 -0.1 -2.9 -0.1 -4.8 -0.1 c -1.8 0 -3.5 0 -4.8 0.1 c -0.4 -0.2 -0.4 -1.2 0 -1.4 l 0.8 -0.1 c 1.3 -0.2 1.5 -0.5 1.5 -3.3 v -6 c 0 -1.6 0 -2 -0.8 -2.5 l -0.6 -0.4 c -0.3 -0.2 -0.3 -1 0 -1.2 c 1.9 -0.5 4.7 -1.6 5.9 -2.3 c 0.3 0 0.6 0.1 0.7 0.4 c -0.1 1.2 -0.1 2.9 -0.1 4.7 v 7.3 z M 169.5 95.8 c -0.1 -5.7 4.4 -8.8 9.1 -8.8 c 4.7 0 8.9 2.9 8.9 8.4 c 0 5.8 -4.2 8.5 -9.1 8.5 c -4.7 0.1 -8.9 -2.6 -8.9 -8.1 z m 5.8 -0.8 c 0 4.2 1.3 7.2 3.6 7.2 s 3 -2.6 3 -6.1 c -0.1 -3.8 -1.1 -7.2 -3.4 -7.2 c -1.8 0 -3.2 1.7 -3.2 6.1 z M 191.5 92.9 c 0 -1.6 0 -2 -0.8 -2.5 l -0.6 -0.4 c -0.3 -0.2 -0.3 -1 0 -1.2 c 1.8 -0.5 4.6 -1.6 5.8 -2.4 c 0.3 0 0.6 0.1 0.7 0.4 c -0.1 0.8 -0.2 1.3 -0.2 1.7 c 0 0.3 0.1 0.4 0.4 0.5 c 1.1 -0.7 2.2 -2 3.9 -2 c 1.1 0 2.2 0.8 2.2 2.3 c 0 1.8 -1.3 2.6 -2.5 2.6 c -0.6 0 -1 -0.2 -1.5 -0.7 c -0.9 -0.8 -1.3 -0.8 -1.5 -0.8 c -0.6 0 -0.8 0.9 -0.8 2.4 v 6.1 c 0 2.8 0.2 3.1 1.5 3.2 l 1.3 0.1 c 0.3 0.2 0.3 1.1 0 1.4 c -1.9 -0.1 -3.5 -0.1 -5.4 -0.1 c -1.6 0 -3.4 0 -4.7 0.1 c -0.4 -0.2 -0.4 -1.2 0 -1.4 l 0.8 -0.1 c 1.3 -0.2 1.5 -0.5 1.5 -3.3 v -5.9 z M 208.7 94 c -0.9 0 -1 0.1 -1 0.7 c 0 3 1.9 5.9 5.6 5.9 c 1.1 0 2.6 -0.2 3.7 -2.1 c 0.4 -0.1 1 0.2 1 0.9 c -1.6 3.4 -4.6 4.5 -6.9 4.5 c -5.4 0 -8.2 -3.8 -8.2 -8.1 c 0 -5 3.6 -8.9 8.6 -8.9 c 4.1 0 6.3 2.7 6.3 5.7 c 0 0.8 -0.2 1.3 -1.4 1.3 h -7.7 z m 2.6 -1.7 c 0.6 0 1.2 -0.1 1.6 -0.4 c 0.2 -0.1 0.3 -0.5 0.3 -0.9 c 0 -1.3 -0.8 -2.2 -2.1 -2.2 c -1.7 0 -3.1 1.6 -3.1 2.9 c 0 0.6 0.6 0.6 1.8 0.6 h 1.5 z M 237.5 87.6 c 0 1.1 0 1.2 1.1 1.2 h 2.7 c 2.1 0 2.5 -0.3 2.9 -2.2 l 0.2 -1 c 0.3 -0.3 1.3 -0.3 1.5 0 c -0.1 1.3 -0.1 2.7 -0.1 4.2 s 0 2.9 0.1 4.2 c -0.2 0.4 -1.2 0.4 -1.5 0 l -0.2 -1 c -0.4 -1.9 -0.9 -2.2 -2.9 -2.2 h -2.7 c -1.1 0 -1.1 0 -1.1 1.2 v 4.7 c 0 1.8 0.2 3.1 0.6 3.8 c 0.5 0.7 1.3 1 4.2 1 c 3.5 0 4.8 -0.1 7 -4.6 c 0.3 -0.4 1.3 -0.3 1.5 0.2 c -0.2 2.1 -1.1 5.3 -1.7 6.3 c -1 0 -2.5 -0.1 -4.2 -0.1 h -10.2 c -1.9 0 -3.8 0 -6.8 0.1 c -0.3 -0.2 -0.3 -1.2 0 -1.4 l 1.9 -0.3 c 1.8 -0.2 2 -0.5 2 -4.2 V 82.9 c 0 -3.6 -0.2 -3.9 -2 -4.2 l -1 -0.2 c -0.4 -0.2 -0.3 -1.1 0.1 -1.4 c 1 0 1.9 0.1 2.9 0.1 h 11.3 c 2.5 0 4.8 0 5.3 -0.1 c 0 0.6 0.3 3.5 0.5 6.1 c -0.2 0.4 -1.1 0.5 -1.5 0.2 c -0.4 -1.4 -1 -2.6 -1.5 -3.1 c -0.8 -0.8 -1.9 -1.2 -3.9 -1.2 h -3.2 c -1.3 0 -1.3 0.1 -1.3 1.5 v 7 z M 258.9 98.8 c 0 2.8 0.2 3.1 1.5 3.3 l 0.8 0.1 c 0.3 0.2 0.3 1.1 0 1.4 c -1.4 -0.1 -2.9 -0.1 -4.8 -0.1 c -1.8 0 -3.5 0 -4.8 0.1 c -0.4 -0.2 -0.4 -1.2 0 -1.4 l 0.8 -0.1 c 1.3 -0.2 1.5 -0.5 1.5 -3.3 v -6 c 0 -1.6 0 -2 -0.8 -2.5 l -0.6 -0.4 c -0.3 -0.2 -0.3 -1 0 -1.2 c 1.9 -0.5 4.7 -1.6 5.9 -2.3 c 0.3 0 0.6 0.1 0.7 0.4 c -0.1 1.2 -0.1 2.9 -0.1 4.7 v 7.3 z m 0.5 -19 c 0 2 -1.5 3.1 -3.1 3.1 c -1.8 0 -2.9 -1.3 -2.9 -3 c 0 -1.8 1.5 -3.1 3.1 -3.1 c 1.7 0 2.9 1.3 2.9 3 z M 264.9 92.9 c 0 -1.6 0 -2 -0.8 -2.5 l -0.6 -0.4 c -0.3 -0.2 -0.3 -1 0 -1.2 c 1.9 -0.5 4.7 -1.6 5.9 -2.3 c 0.3 0 0.6 0.1 0.7 0.4 c 0 0.6 -0.1 1.5 -0.1 1.8 c 0 0.2 0.1 0.3 0.2 0.3 s 0.5 -0.2 0.8 -0.3 c 0.9 -0.5 2.7 -1.6 4.6 -1.6 c 3.3 0 5 2.3 5 5 v 6.8 c 0 2.8 0.2 3.1 1.6 3.3 l 0.6 0.1 c 0.3 0.2 0.3 1.1 0 1.4 c -1.2 -0.1 -2.9 -0.1 -4.8 -0.1 c -1.6 0 -3.1 0 -4.3 0.1 c -0.4 -0.2 -0.4 -1.2 0 -1.4 l 0.7 -0.1 c 0.9 -0.1 1.1 -0.4 1.1 -2.6 v -6.7 c 0 -1.5 -0.8 -2.8 -2.8 -2.8 c -1.1 0 -1.9 0.5 -2.2 1 c -0.2 0.3 -0.3 0.8 -0.3 1.5 v 7.1 c 0 2.2 0.2 2.5 1.1 2.7 l 0.6 0.1 c 0.3 0.2 0.3 1.1 0 1.4 c -1.2 -0.1 -2.5 -0.1 -4.4 -0.1 c -1.7 0 -3.3 0 -4.7 0.1 c -0.4 -0.2 -0.4 -1.2 0 -1.4 l 0.6 -0.1 c 1.4 -0.2 1.6 -0.5 1.6 -3.3 v -6.2 z M 284.8 102.8 c -0.4 -0.8 -0.7 -2.7 -0.6 -4.5 c 0.2 -0.4 1.1 -0.4 1.3 -0.1 c 0.5 1.6 2 4 4 4 c 1.2 0 2.1 -0.7 2.1 -2.1 c 0 -1.5 -1.3 -2.3 -2.6 -3 c -2.4 -1.2 -4.1 -2.6 -4.1 -5 c 0 -3.5 2.9 -5.1 6.3 -5.1 c 2 0 3.8 0.5 4.2 0.8 c 0.4 0.9 0.6 2.5 0.6 4 c -0.2 0.4 -1.1 0.4 -1.4 0.2 c -0.8 -2.3 -1.8 -3.1 -3.1 -3.1 c -1.1 0 -2 0.7 -2 1.7 c 0 0.9 0.8 1.7 2.5 2.5 c 2.7 1.3 4.4 3 4.4 5.6 c 0 3.5 -3.1 5.3 -6.8 5.3 c -2.2 0 -3.7 -0.4 -4.8 -1.2 z M 306 89.7 c -0.5 0 -0.6 0 -0.6 0.9 v 5.9 c 0 2.2 0 4.7 2.8 4.7 c 0.6 0 1.2 -0.3 1.7 -0.6 c 0.4 0.1 0.6 0.6 0.6 1 c -1.1 1.2 -3.3 2.3 -5.7 2.3 c -3.3 0 -4.4 -1.9 -4.4 -4.5 v -8.8 c 0 -0.8 0 -0.9 -0.8 -0.9 h -1.2 c -0.4 -0.2 -0.6 -1 -0.2 -1.2 c 1.2 -0.4 2.3 -1.2 3.3 -1.8 c 0.7 -0.5 1.7 -1.3 2.9 -3.1 c 0.3 -0.2 1 -0.1 1.2 0.2 v 3 c 0 0.8 0 0.8 0.8 0.8 h 3.5 c 0.2 0.2 0.3 0.4 0.3 0.8 s -0.1 1.1 -0.5 1.4 H 306 z M 317 94 c -0.9 0 -1 0.1 -1 0.7 c 0 3 1.9 5.9 5.6 5.9 c 1.1 0 2.6 -0.2 3.7 -2.1 c 0.4 -0.1 1 0.2 1 0.9 c -1.6 3.4 -4.6 4.5 -6.9 4.5 c -5.4 0 -8.2 -3.8 -8.2 -8.1 c 0 -5 3.6 -8.9 8.6 -8.9 c 4.1 0 6.3 2.7 6.3 5.7 c 0 0.8 -0.2 1.3 -1.4 1.3 H 317 z m 2.6 -1.7 c 0.6 0 1.2 -0.1 1.6 -0.4 c 0.2 -0.1 0.3 -0.5 0.3 -0.9 c 0 -1.3 -0.8 -2.2 -2.1 -2.2 c -1.7 0 -3.1 1.6 -3.1 2.9 c 0 0.6 0.6 0.6 1.8 0.6 h 1.5 z M 334.8 98.8 c 0 2.8 0.2 3.1 1.5 3.3 l 0.8 0.1 c 0.3 0.2 0.3 1.1 0 1.4 c -1.4 -0.1 -2.9 -0.1 -4.8 -0.1 c -1.8 0 -3.5 0 -4.8 0.1 c -0.4 -0.2 -0.4 -1.2 0 -1.4 l 0.8 -0.1 c 1.3 -0.2 1.5 -0.5 1.5 -3.3 v -6 c 0 -1.6 0 -2 -0.8 -2.5 l -0.6 -0.4 c -0.3 -0.2 -0.3 -1 0 -1.2 c 1.9 -0.5 4.7 -1.6 5.9 -2.3 c 0.3 0 0.6 0.1 0.7 0.4 c -0.1 1.2 -0.1 2.9 -0.1 4.7 v 7.3 z m 0.5 -19 c 0 2 -1.5 3.1 -3.1 3.1 c -1.8 0 -2.9 -1.3 -2.9 -3 c 0 -1.8 1.5 -3.1 3.1 -3.1 c 1.7 0 2.9 1.3 2.9 3 z M 340.8 92.9 c 0 -1.6 0 -2 -0.8 -2.5 l -0.6 -0.4 c -0.3 -0.2 -0.3 -1 0 -1.2 c 1.9 -0.5 4.7 -1.6 5.9 -2.3 c 0.3 0 0.6 0.1 0.7 0.4 c 0 0.6 -0.1 1.5 -0.1 1.8 c 0 0.2 0.1 0.3 0.2 0.3 s 0.5 -0.2 0.8 -0.3 c 0.9 -0.5 2.7 -1.6 4.6 -1.6 c 3.3 0 5 2.3 5 5 v 6.8 c 0 2.8 0.2 3.1 1.6 3.3 l 0.6 0.1 c 0.3 0.2 0.3 1.1 0 1.4 c -1.2 -0.1 -2.9 -0.1 -4.8 -0.1 c -1.6 0 -3.1 0 -4.3 0.1 c -0.4 -0.2 -0.4 -1.2 0 -1.4 l 0.7 -0.1 c 0.9 -0.1 1.1 -0.4 1.1 -2.6 v -6.7 c 0 -1.5 -0.8 -2.8 -2.8 -2.8 c -1.1 0 -1.9 0.5 -2.2 1 c -0.2 0.3 -0.3 0.8 -0.3 1.5 v 7.1 c 0 2.2 0.2 2.5 1.1 2.7 l 0.6 0.1 c 0.3 0.2 0.3 1.1 0 1.4 c -1.2 -0.1 -2.5 -0.1 -4.4 -0.1 c -1.7 0 -3.3 0 -4.7 0.1 c -0.4 -0.2 -0.4 -1.2 0 -1.4 l 0.6 -0.1 c 1.4 -0.2 1.6 -0.5 1.6 -3.3 v -6.2 z" stroke-linecap="round" />
</g>
		<g transform="matrix(1 0 0 1 -45.26 -18.6)"  >
<path style="stroke: none; stroke-width: 1; stroke-dasharray: none; stroke-linecap: butt; stroke-dashoffset: 0; stroke-linejoin: miter; stroke-miterlimit: 4; fill: rgb(0,55,103); fill-rule: nonzero; opacity: 1;"  transform=" translate(-154.14, -89.4)" d="M 155.9 87.2 h -2.5 c -0.9 0 -1 -0.2 -1 -0.9 V 86 c 0 -6.3 0.4 -9 3.2 -9 c 1.1 0 2.7 0.7 3.3 2.9 c 0.3 1 0.9 1.4 1.7 1.4 c 1.1 0 2.2 -0.8 2.2 -2.1 c 0 -2.1 -2.4 -3.8 -5.7 -3.8 c -4.3 0 -8.6 2.4 -9 10.6 v 0.4 c 0 0.5 -0.3 0.7 -0.6 0.9 l -1.7 0.9 c -0.3 0.2 -0.2 0.8 0.1 0.9 h 1.5 c 0.7 0 0.7 0.1 0.7 1.2 v 8.1 c 0 3 -0.2 3.5 -1.5 3.7 l -0.9 0.1 c -0.3 0.3 -0.3 1 0.1 1.2 c 1.7 -0.1 3.1 -0.1 4.4 -0.1 c 1.9 0 3.5 0 4.8 0.1 c 0.3 -0.2 0.4 -0.9 0.1 -1.2 l -1 -0.1 c -1.4 -0.2 -1.6 -0.7 -1.6 -3.7 v -8 c 0 -1.2 0.1 -1.3 0.9 -1.3 h 2.2 c 1 0 2.1 -1.9 0.3 -1.9" stroke-linecap="round" />
</g>
		<g transform="matrix(1 0 0 1 -45.26 -18.45)"  >
<path style="stroke: none; stroke-width: 1; stroke-dasharray: none; stroke-linecap: butt; stroke-dashoffset: 0; stroke-linejoin: miter; stroke-miterlimit: 4; fill: rgb(0,55,103); fill-rule: nonzero; opacity: 1;"  transform=" translate(-154.14, -89.55)" d="M 145.8 103.6 c -0.1 0 -0.1 -0.1 0 0 c -0.3 -0.1 -0.5 -0.3 -0.5 -0.6 c -0.1 -0.4 0.1 -0.7 0.3 -0.9 h 0.1 l 0.9 -0.1 c 1.2 -0.2 1.4 -0.4 1.4 -3.5 v -8.1 c 0 -1 0 -1 -0.5 -1 h -1.6 c -0.2 -0.1 -0.4 -0.3 -0.4 -0.6 s 0.1 -0.5 0.2 -0.7 l 1.7 -0.9 c 0.3 -0.2 0.5 -0.4 0.5 -0.7 v -0.4 c 0.4 -9.4 5.9 -10.8 9.2 -10.8 c 3.3 0 5.9 1.8 5.9 4 c 0 1.5 -1.3 2.3 -2.5 2.3 c -1 0 -1.6 -0.5 -1.9 -1.5 c -0.6 -2.2 -2.2 -2.7 -3.1 -2.7 c -2.6 0 -3 2.6 -3 8.8 v 0.3 c 0 0.6 0 0.7 0.8 0.7 h 2.5 c 0.4 0 0.7 0.1 0.9 0.2 c 0.2 0.1 0.3 0.4 0.3 0.6 c 0 0.7 -0.8 1.5 -1.7 1.5 h -2.2 c -0.6 0 -0.6 0 -0.6 1.1 v 8 c 0 3.1 0.2 3.3 1.4 3.5 l 1 0.1 s 0.1 0 0.1 0.1 c 0.2 0.2 0.3 0.6 0.2 0.9 c 0 0.3 -0.2 0.5 -0.4 0.6 h -0.1 c -1.3 -0.1 -2.8 -0.1 -4.7 -0.1 c -1.1 -0.3 -2.5 -0.2 -4.2 -0.1 z m 0 -1.2 c -0.1 0.1 -0.1 0.3 -0.1 0.5 c 0 0.1 0.1 0.2 0.1 0.3 c 1.7 -0.1 3.1 -0.1 4.3 -0.1 c 1.9 0 3.4 0 4.7 0.1 c 0.1 0 0.1 -0.1 0.1 -0.3 c 0 -0.2 0 -0.4 -0.1 -0.5 l -0.9 -0.1 c -1.6 -0.2 -1.8 -0.8 -1.8 -3.9 v -8 c 0 -1.2 0.1 -1.5 1.1 -1.5 h 2.2 c 0.3 0 0.6 -0.1 0.9 -0.4 c 0.2 -0.2 0.4 -0.5 0.4 -0.7 c 0 -0.3 -0.4 -0.4 -0.7 -0.4 h -2.5 c -1 0 -1.2 -0.2 -1.2 -1.1 V 86 c 0 -5.7 0.2 -9.2 3.4 -9.2 c 1 0 2.8 0.6 3.5 3.1 c 0.2 0.8 0.7 1.2 1.5 1.2 c 1 0 2 -0.7 2 -1.9 c 0 -2 -2.4 -3.6 -5.5 -3.6 c -7.2 0 -8.6 6.5 -8.7 10.4 v 0.4 c 0 0.6 -0.4 0.9 -0.7 1.1 l -1.7 0.9 c -0.1 0.1 -0.1 0.2 -0.1 0.3 c 0 0.1 0.1 0.2 0.1 0.3 h 1.4 c 0.9 0 0.9 0.3 0.9 1.4 v 8.1 c 0 3 -0.1 3.6 -1.7 3.9 h -0.9 z" stroke-linecap="round" />
</g>
</g>
</g>
</svg>